<svg xmlns="http://www.w3.org/2000/svg" width="564" height="100" viewBox="0 0 564 100">
  <defs>
    <linearGradient id="logo_colour-a" x1="48.739%" x2="54.043%" y1="71.042%" y2="91.209%">
      <stop offset="0%" stop-color="#FFCB00"/>
      <stop offset="100%" stop-color="#EF1E23"/>
    </linearGradient>
  </defs>
  <g fill="none" fill-rule="evenodd" transform="translate(28 5)">
    <g transform="translate(107.578 16.875)">
      <path fill="#222" d="M51.3544143 9.9975255L44.2502446 17.0271064C39.7554927 12.2630721 34.5110396 9.88659546 28.5278471 9.88659546 23.306986 9.88659546 18.9360325 11.6225136 15.4148675 15.081839 11.8937024 18.5411644 10.1321667 22.7519783 10.1321667 27.7016507 10.1321667 32.8242118 11.955542 37.158705 15.6114674 40.7163304 19.2690609 44.2738366 23.7746556 46.0590835 29.1429072 46.0590835 32.6276119 46.0590835 35.5719645 45.3202251 37.959403 43.8553766 40.3469607 42.3923153 43.7988988 34.4291825 45.2656537 31.3010982L29.8998766 31.3010982 29.8998766 21.8093708 56.5915992 21.8093708 56.6661881 24.049419C56.8208467 28.6879868 53.9402401 38.7601011 51.5400524 42.9200373 49.1398646 47.0817608 46.0226231 50.2589355 42.1939281 52.437144 38.3779822 54.629889 33.8959795 55.7253678 28.7498264 55.7253678 23.2323972 55.7253678 18.3337217 54.5298017 14.0118586 52.1423632 9.7027447 49.7403881 6.27987964 46.3301532 3.76685542 41.9101092 1.25561847 37.4899461-7.99587733e-15 32.7131626-7.99587733e-15 27.5906015-7.99587733e-15 20.5737698 2.31463698 14.466779 6.9567793 9.27153543 12.4724212 3.08983662 19.6384306 2.3987632e-14 28.4532583 2.3987632e-14 33.0716895 2.3987632e-14 37.3916462.849788476 41.4059792 2.56032737 44.7925031 4.00158387 48.1171873 6.47636046 51.3544143 9.9975255L51.3544143 9.9975255zM68.8400156 1.33020731L81.0399374 1.33020731 81.0399374 35.669073C81.0399374 38.6236726 81.351042 40.7171644 81.9734894 41.9474036 82.5958177 43.1672767 83.6182567 44.151468 85.0562961 44.8906839 86.4932631 45.6173889 88.2279898 45.9865202 90.2428416 45.9865202 92.3920963 45.9865202 94.2457361 45.5802136 95.7881522 44.7552087 97.3440325 43.9425955 98.410915 42.9077647 99.0033362 41.6403502 99.5967107 40.3718634 99.8933979 37.9713182 99.8933979 34.4129779L99.8933979 1.33020731 112.092366 1.33020731 112.092366 32.9605211C112.092366 38.3032743 111.735746 42.0094816 111.009994 44.0780707 110.28317 46.1466598 108.904111 48.1408985 106.859233 50.0617397 104.813282 51.982581 102.47279 53.4102543 99.8045109 54.33344 97.1352791 55.2576982 94.0379359 55.7248912 90.510575 55.7248912 85.8709349 55.7248912 81.8400397 54.8389998 78.4161023 53.0784173 74.9921649 51.3054431 72.5316865 49.0889869 71.0492036 46.4413215 69.5822103 43.7824558 68.8400156 39.2884188 68.8400156 32.9605211L68.8400156 1.33020731 68.8400156 1.33020731z"/>
      <polygon fill="#222" points="131.418 1.33 143.483 1.33 143.483 54.395 131.418 54.395"/>
      <path fill="#222" d="M163.766107,1.33020731 L175.912291,1.33020731 C183.739234,1.33020731 189.544057,2.29056838 193.351662,4.1990179 C197.159148,6.10734828 200.291522,9.22220671 202.752,13.5188097 C205.211406,17.8286385 206.446888,22.8519464 206.446888,28.6019594 C206.446888,32.6896898 205.760456,36.4443918 204.375082,39.8797677 C203.001146,43.3027519 201.104135,46.1466598 198.669512,48.4117298 C196.248354,50.664408 193.626663,52.2286289 190.79193,53.1032008 C187.971733,53.9643087 183.065194,54.3953988 176.087087,54.3953988 L163.766107,54.3953988 L163.766107,1.33020731 Z M173.964641,11.0685783 L173.964641,44.5091608 L178.721169,44.5091608 C183.402274,44.5091608 186.797257,43.9798899 188.907311,42.9201565 C191.017246,41.8616146 192.739581,40.0886403 194.087661,37.5775225 C195.424421,35.0777241 196.098461,32.0001601 196.098461,28.3424474 C196.098461,22.7164712 194.500163,18.3580286 191.304639,15.2555619 C188.432731,12.4601486 183.802384,11.0685783 177.435167,11.0685783 L173.964641,11.0685783 Z"/>
      <polygon fill="#222" points="351.358 1.33 400.681 1.33 371.575 44.693 398.791 44.693 398.791 54.395 348.976 54.395 377.911 11.328 351.358 11.328 351.358 1.33"/>
      <path fill="#EF1E23" d="M215.930275,56.364139 L229.57467,56.364139 L244.924004,24.0403635 L260.26607,56.2530898 L272.205288,56.2530898 L245.053164,0.309317286 C245.053164,0.309317286 215.55185,56.364139 215.930275,56.364139 L215.930275,56.364139 Z"/>
      <polygon fill="#222" points="286.588 1.43 286.588 56.077 298.65 56.077 298.65 24.947 327.476 56.078 332.384 56.078 332.384 .777 320.321 .777 320.321 31.499 290.472 1.43 286.588 1.43"/>
    </g>
    <path fill="#EF1E23" d="M39.8076923 10.0522059C61.7901289 10.0522059 79.6153846 27.8772272 79.6153846 49.8593748 79.6153846 71.8415224 61.7901289 89.6675905 39.8076923 89.6675905 17.8252557 89.6675905-1.70974346e-14 71.8415224-1.70974346e-14 49.8593748-1.70974346e-14 27.8772272 17.8252557 10.0522059 39.8076923 10.0522059zM39.8076923 17.6675905C22.0305914 17.6675905 7.61538462 32.0826078 7.61538462 49.8594749 7.61538462 67.6363421 22.0305914 82.0522059 39.8076923 82.0522059 57.5847932 82.0522059 72 67.6363421 72 49.8594749 72 32.0826078 57.5847932 17.6675905 39.8076923 17.6675905zM40.1452713-7.37871303e-15C37.3760668-7.37871303e-15 35.1298173 2.24661233 35.1298173 5.01532206 35.1298173 7.78487289 37.3757205 10.0307761 40.1452713 10.0307761 42.9147161 10.0307761 45.1605934 7.78484698 45.1605934 5.01532206 45.1605934 2.24663825 42.9143698-7.37871303e-15 40.1452713-7.37871303e-15zM40.1452713 2.13158277C41.737041 2.13158277 43.0290106 3.42379084 43.0290106 5.01532206 43.0290106 6.60761733 41.7374644 7.8991933 40.1452713 7.8991933 38.5529611 7.8991933 37.2614001 6.60763223 37.2614001 5.01532206 37.2614001 3.42377593 38.5533846 2.13158277 40.1452713 2.13158277z"/>
    <path fill="url(#logo_colour-a)" d="M16.3689212,82.0581727 L20.9736299,75.992773 C13.0047225,69.6221822 8.60698007,62.015475 7.78040261,53.1726516 C7.06245649,45.4919792 8.86012967,38.392975 13.1734221,31.8756388 C14.3450261,30.1053318 14.1139002,27.7558901 12.6197763,26.247833 C11.2967741,24.9124932 9.14176211,24.9024917 7.80642238,26.2254939 C7.67789687,26.352832 7.55972931,26.4902153 7.45301652,26.6363186 C1.64069943,34.5971466 -0.771459541,43.6689012 0.216539595,53.8515824 C1.33510235,65.3799001 6.71922956,74.7820969 16.3689212,82.0581727 Z"/>
    <path fill="#EF1E23" d="M57.5921875,26.5501686 L47.5649739,56.3720082 L23.7884905,72.2128813 L33.0380161,43.9064381 L57.5921875,26.5501686 Z M39.8076923,45.706052 C37.5138728,45.706052 35.6538462,47.5660542 35.6538462,49.8598436 C35.6538462,52.1536329 37.5138728,54.0137443 39.8076923,54.0137443 C42.1015118,54.0137443 43.9615385,52.1536329 43.9615385,49.8598436 C43.9615385,47.5660542 42.1015118,45.706052 39.8076923,45.706052 Z"/>
  </g>
</svg>
